<svg width="180" height="37" viewBox="0 0 180 37" fill="none" xmlns="http://www.w3.org/2000/svg">
<path d="M9.624 26.352C4.894 26.352 2.122 23.69 2.122 19.07V10.6H7.314V18.916C7.314 21.27 8.216 22.15 9.668 22.15C11.12 22.15 12.022 21.27 12.022 18.916V10.6H17.126V19.07C17.126 23.69 14.354 26.352 9.624 26.352ZM37.986 26H33.256L33.212 18.982L29.868 24.614H27.58L24.236 19.224V26H19.506V10.6H23.774L28.79 18.806L33.674 10.6H37.942L37.986 26ZM46.2382 26.352C43.6642 26.352 41.0682 25.714 39.5282 24.768L41.2002 20.984C42.6522 21.842 44.5882 22.392 46.2822 22.392C47.7562 22.392 48.2842 22.084 48.2842 21.556C48.2842 19.62 39.7702 21.182 39.7702 15.44C39.7702 12.58 42.1682 10.248 46.9422 10.248C49.0102 10.248 51.1442 10.688 52.7502 11.59L51.1882 15.352C49.6702 14.582 48.2402 14.208 46.8982 14.208C45.3802 14.208 44.8962 14.648 44.8962 15.176C44.8962 17.024 53.4102 15.484 53.4102 21.16C53.4102 23.976 51.0122 26.352 46.2382 26.352ZM67.4732 14.516H60.1472V17.156H66.5712V21.072H60.1472V26H54.9552V10.6H67.4732V14.516ZM75.7091 26V10.6H80.9011V21.974H87.8531V26H75.7091ZM89.2872 26V10.6H94.4792V26H89.2872ZM109.299 17.948C111.103 18.608 112.159 19.928 112.159 21.754C112.159 24.438 109.893 26 105.647 26H96.9786V10.6H105.207C109.453 10.6 111.433 12.294 111.433 14.626C111.433 16.056 110.707 17.244 109.299 17.948ZM104.503 14.23H102.083V16.518H104.503C105.669 16.518 106.197 16.122 106.197 15.374C106.197 14.626 105.669 14.23 104.503 14.23ZM105.207 22.37C106.351 22.37 106.923 21.952 106.923 21.16C106.923 20.368 106.351 19.95 105.207 19.95H102.083V22.37H105.207ZM123.212 26L120.594 22.128H119.186V26H113.994V10.6H121.408C125.698 10.6 128.426 12.844 128.426 16.408C128.426 18.63 127.37 20.302 125.522 21.248L128.756 26H123.212ZM123.19 16.408C123.19 15.286 122.508 14.604 121.078 14.604H119.186V18.212H121.078C122.508 18.212 123.19 17.53 123.19 16.408ZM141.915 26L140.881 23.316H135.029L133.995 26H128.715L135.447 10.6H140.551L147.283 26H141.915ZM136.459 19.576H139.451L137.955 15.704L136.459 19.576ZM157.329 26L154.711 22.128H153.303V26H148.111V10.6H155.525C159.815 10.6 162.543 12.844 162.543 16.408C162.543 18.63 161.487 20.302 159.639 21.248L162.873 26H157.329ZM157.307 16.408C157.307 15.286 156.625 14.604 155.195 14.604H153.303V18.212H155.195C156.625 18.212 157.307 17.53 157.307 16.408ZM179.249 10.6L173.441 20.412V26H168.249V20.346L162.441 10.6H167.919L171.065 15.924L174.233 10.6H179.249Z" fill="white"/>
</svg>
